<svg xmlns="http://www.w3.org/2000/svg" viewBox="0 0 438.42 464.08"><defs><style>.cls-1,.cls-4{fill:#161513;}.cls-2,.cls-3,.cls-6{fill:#fff9ed;}.cls-2,.cls-3,.cls-4{stroke:#161513;}.cls-2,.cls-3{stroke-linecap:round;stroke-linejoin:round;}.cls-2{stroke-width:4.22px;}.cls-3{stroke-width:4.54px;}.cls-4,.cls-5{stroke-miterlimit:10;}.cls-4{stroke-width:10.04px;}.cls-5{fill:none;stroke:#8af85f;stroke-width:3.49px;}</style></defs><g id="_3" data-name="#3"><path class="cls-1" d="M411.74,215.51C404.17,183.6,341,170.1,260.9,179.82a3.76,3.76,0,0,1,1,.74c58.46-3.21,104.38,13,111.51,43,9.22,38.87-50,86.2-132.22,105.72s-156.4,3.84-165.63-35C68.91,266.3,97.71,234,145,210.73a2.9,2.9,0,0,1,.71-1.74c.22-.25.44-.5.65-.76l.1-.12a3.62,3.62,0,0,0,.22-.32,4.94,4.94,0,0,0,.3-.49c-73.91,27.28-122.6,67-115.14,98.38,9.27,39.05,101.82,50.53,206.72,25.63S421,254.57,411.74,215.51Z"/><path class="cls-2" d="M337.34,316.6c10.89.68,24.63,7,46.11,17.87-19.79-13.67-32-22.68-37.77-31.91,8.17-7.23,22.39-12.44,45.24-20-23.66,4.33-38.64,6.57-49.28,4.14a40.46,40.46,0,0,1,.76-5.5c1.9-9.13,7-20.4,14.79-36-.17-.18-.34-.36-.5-.55-12.12,17.4-20.52,28.3-29.1,33.69-7.22-8.17-12.43-22.39-20-45.24,4.23,23.2,6.47,38.05,4.27,48.65,0,.21-.09.43-.14.63-10.89-.68-24.63-7.05-46.11-17.87,19.79,13.67,32,22.68,37.77,31.92-8.17,7.22-22.4,12.43-45.24,20,23.66-4.32,38.64-6.56,49.28-4.13a38.74,38.74,0,0,1-.76,5.5c-2.08,10-8,22.58-17.11,40.61,13.67-19.79,22.68-32,31.92-37.77,7.22,8.18,12.43,22.4,20,45.24-4.23-23.2-6.47-38.05-4.27-48.65C337.25,317,337.29,316.81,337.34,316.6Z"/><path class="cls-3" d="M179.77,252.17c-25.56-4-38.68-5.42-48.61-11.66,4.54-10.82,13-24.14,31.63-42.11-20.92,15.24-34.39,24.4-45.83,27a42.21,42.21,0,0,1-1.83-5.69c-2.66-10.67-2.76-25.64-2.37-47.34-4,25.57-7.06,41.57-13.3,51.51C88.64,219.34,77,208,59,189.37c14.94,20.51,24,33.86,26.85,45.15.06.23.11.46.16.68-10.87,4.43-27.16,4.67-53,4.21,25.57,4,41.57,7.05,51.51,13.29C79.93,263.52,68.57,275.21,50,293.18c20.92-15.24,34.39-24.41,45.83-27a40.84,40.84,0,0,1,1.83,5.69C99,277.54,99.72,284.46,100,293l.22,0a22.43,22.43,0,0,1,4.34.16c2.36-11.2,5-19.42,8.73-25.43,10.81,4.56,22.5,15.9,40.47,34.53-14.94-20.51-24-33.86-26.85-45.15-.06-.23-.12-.46-.16-.68C137.61,252,153.9,251.71,179.77,252.17Z"/><circle class="cls-4" cx="221.81" cy="269.67" r="92.95"/><path class="cls-5" d="M222,182.51a87.17,87.17,0,0,1,0,174.33"/><path class="cls-5" d="M222,182.51c34.38,0,62.26,39,62.26,87.16S256.33,356.84,222,356.84"/><path class="cls-5" d="M222,182.51c20.63,0,37.35,39,37.35,87.16S242.58,356.84,222,356.84"/><path class="cls-5" d="M222,182.51c6.88,0,12.45,39,12.45,87.16s-5.57,87.17-12.45,87.17"/><path class="cls-5" d="M222,182.51c-6.88,0-12.45,39-12.45,87.16s5.57,87.17,12.45,87.17"/><path class="cls-5" d="M222,182.51c-20.63,0-37.36,39-37.36,87.16s16.73,87.17,37.36,87.17"/><path class="cls-5" d="M222,182.51c-34.39,0-62.26,39-62.26,87.16s27.87,87.17,62.26,87.17"/><path class="cls-5" d="M222,182.51a87.17,87.17,0,1,0,0,174.33"/><path class="cls-5" d="M162.84,205.62c6.63-1.58,13.34-2.86,20.08-3.86h0q6.86-1,13.73-1.67c1-.1,2-.19,2.95-.27q7.52-.65,15.07-.87,7.28-.22,14.55,0,7.5.16,15,.77h0q8.32.68,16.59,1.89c6.71,1,13.38,2.25,20,3.79h0"/><path class="cls-5" d="M142.28,234.27c8-1.72,16.05-3.09,24.18-4.16,7.54-1,15.12-1.72,22.7-2.25q11-.75,21.94-1c3.79-.08,7.58-.12,11.35-.12q5.16,0,10.35.1c7.28.14,14.59.43,21.92.92,7.56.5,15.14,1.21,22.67,2.18,8.1,1,16.16,2.37,24.12,4.05"/><path class="cls-5" d="M135.61,257.65q12.39-1,24.84-1.63t24.66-.9q12.3-.3,24.57-.37l12.77,0,11.77,0c8.18.05,16.37.15,24.56.35s16.45.47,24.66.87,16.57.92,24.84,1.6"/><path class="cls-5" d="M135.35,279.69c8.28.69,16.58,1.22,24.89,1.64s16.49.7,24.74.91,16.44.31,24.65.36q6.42,0,12.82,0l11.81,0c8.21-.05,16.43-.15,24.66-.35s16.49-.48,24.73-.88,16.6-.93,24.88-1.61"/><path class="cls-5" d="M141.33,302.89c8,1.76,16.2,3.16,24.39,4.26,7.63,1,15.31,1.77,23,2.31h0c7.43.52,14.86.84,22.24,1q5.77.12,11.51.12c3.49,0,7,0,10.5-.1h0c7.37-.15,14.79-.44,22.22-1,7.66-.51,15.33-1.25,22.95-2.24,8.17-1.07,16.3-2.44,24.33-4.16"/><path class="cls-5" d="M160.07,331.06h0C167,332.8,174,334.2,181,335.3h0q7.83,1.23,15.68,2l1.8.17c5.26.47,10.55.79,15.84,1q7.65.24,15.31.05h0q7.89-.19,15.77-.86,8.73-.75,17.39-2.09c7-1.09,13.94-2.47,20.8-4.16"/><path class="cls-1" d="M361.05,245.54,349.4,229.2h0l-.36-.51h0l-.36-.5h0l-.36-.5h0l-.36-.51h0l-.36-.5h0l-.36-.5h0l-.36-.51h0l-.36-.5h0l-.36-.5h0l-.36-.51h0l-.36-.5h0L345,223h0l-.36-.51h0l-.36-.5h0l-.36-.5h0l-.36-.51h0l-.36-.5h0l-.36-.5h0l-.36-.51h0l-.36-.5a4.37,4.37,0,0,0-3.55-2c-1.63,0-2.95.94-3.93,2.8l-10.54,20a5.18,5.18,0,0,1-1.84,1.86,4.05,4.05,0,0,1-2.1.73H294.2a7.85,7.85,0,0,0-4.2,1.3,9.37,9.37,0,0,0-1.16.85,5.79,5.79,0,0,0-.73-.84,5.22,5.22,0,0,0-3.63-1.31H232.65a8,8,0,0,0-4.22,1.29,8.6,8.6,0,0,0-2.14,1.84l-.22-.29a4.19,4.19,0,0,0-.37-.51,4.48,4.48,0,0,0-.84-1,5.18,5.18,0,0,0-3.62-1.31H169.41a8,8,0,0,0-4.23,1.29,8.42,8.42,0,0,0-2.34,2.11l0-.05a4.16,4.16,0,0,0-.36-.51,5.32,5.32,0,0,0-.37-.52,4.64,4.64,0,0,0-.84-1,5.18,5.18,0,0,0-3.62-1.31H105.77a8,8,0,0,0-4.22,1.29,7.83,7.83,0,0,0-3,3.11L82,278a5.14,5.14,0,0,0-.57,2.76,4.59,4.59,0,0,0,1,2.57,4.33,4.33,0,0,0,.37.52,48.37,48.37,0,0,1,.73,1,4.33,4.33,0,0,0,.37.52,48.37,48.37,0,0,1,.73,1,4.33,4.33,0,0,0,.37.52,5.63,5.63,0,0,0,.36.51,5.32,5.32,0,0,0,.37.52,5.15,5.15,0,0,0,.37.51,5.63,5.63,0,0,0,.36.51,5.32,5.32,0,0,0,.37.52,5.15,5.15,0,0,0,.37.51,4.16,4.16,0,0,0,.36.51,5.32,5.32,0,0,0,.37.52,5.15,5.15,0,0,0,.37.51,4.16,4.16,0,0,0,.36.51,5.32,5.32,0,0,0,.37.52,5.15,5.15,0,0,0,.37.51,4.74,4.74,0,0,0,.82,1A5.32,5.32,0,0,0,94,295.42h51.83a7.76,7.76,0,0,0,4.14-1.29,8.46,8.46,0,0,0,2.35-2.11l0,0a4.19,4.19,0,0,0,.37.51,5.27,5.27,0,0,0,.36.52,4.94,4.94,0,0,0,.84,1,5.32,5.32,0,0,0,3.71,1.33h51.83a7.76,7.76,0,0,0,4.14-1.29,8.66,8.66,0,0,0,2.15-1.84c.06.09.14.18.21.27a4.16,4.16,0,0,0,.36.51,4.78,4.78,0,0,0,.85,1,5.3,5.3,0,0,0,3.7,1.33h51.83a7.8,7.8,0,0,0,4.15-1.29,9.32,9.32,0,0,0,1.16-.84,5.26,5.26,0,0,0,.7.8,5.34,5.34,0,0,0,3.71,1.33H334.2a7.85,7.85,0,0,0,4.2-1.3,8.41,8.41,0,0,0,3-3.09l20-37.81a7.85,7.85,0,0,0,.83-4.39A6.5,6.5,0,0,0,361.05,245.54ZM247.68,267.61l-.65,1.23-.22-.29a5.32,5.32,0,0,0-.37-.52,4.5,4.5,0,0,0-.3-.42Z"/><path class="cls-6" d="M160.37,246.34c-.1-1.16-.84-1.74-2.23-1.74H106.31a6.91,6.91,0,0,0-5.56,3.48L84.16,279.36a3.26,3.26,0,0,0-.39,1.74q.15,1.74,2.31,1.74h51.83a6,6,0,0,0,3.11-1,6.23,6.23,0,0,0,2.38-2.47L160,248.08A3.26,3.26,0,0,0,160.37,246.34Zm-27.77,3.48a3.46,3.46,0,0,1-.39,1.74l-12.87,24.33a6.18,6.18,0,0,1-2.37,2.46,6,6,0,0,1-3.19,1c-1.39,0-2.13-.58-2.23-1.73a3.19,3.19,0,0,1,.4-1.74l12.86-24.33a6.92,6.92,0,0,1,2.41-2.47,5.93,5.93,0,0,1,3.15-1C131.75,248.08,132.5,248.66,132.6,249.82ZM224,246.34c-.1-1.16-.85-1.74-2.24-1.74H169.94a6.91,6.91,0,0,0-5.56,3.48l-16.59,31.28a3.46,3.46,0,0,0-.39,1.74q.15,1.74,2.31,1.74h51.83a6,6,0,0,0,3.11-1,6.23,6.23,0,0,0,2.38-2.47l16.58-31.28A3.38,3.38,0,0,0,224,246.34Zm-27.78,3.48a3.46,3.46,0,0,1-.39,1.74L183,275.89a6.18,6.18,0,0,1-2.37,2.46,6,6,0,0,1-3.19,1c-1.39,0-2.13-.58-2.23-1.73a3.19,3.19,0,0,1,.4-1.74l12.86-24.33a6.92,6.92,0,0,1,2.41-2.47,5.93,5.93,0,0,1,3.15-1C195.39,248.08,196.13,248.66,196.23,249.82Zm81.41,15.64-7.37,13.9a6.13,6.13,0,0,1-2.37,2.47,6,6,0,0,1-3.11,1H213q-2.16,0-2.31-1.74a3.26,3.26,0,0,1,.39-1.74l5.58-10.42a6.23,6.23,0,0,1,2.33-2.47,5.93,5.93,0,0,1,3.15-1h18.51q2.16,0,2.31,1.74a3.26,3.26,0,0,1-.39,1.74l-3.72,6.95a3.44,3.44,0,0,0-.39,1.74c.1,1.15.85,1.73,2.23,1.73a6.87,6.87,0,0,0,5.57-3.47l5.5-10.43a3.05,3.05,0,0,0,.47-1.74Q252,262,249.88,262q-2.77,0-2.88-1.23c-.07-.72.55-1.3,1.85-1.74a9.2,9.2,0,0,1,2.89-.5,7,7,0,0,0,5.52-3.46l1.88-3.47a3.73,3.73,0,0,0,.34-1.75c-.1-1.17-.85-1.75-2.24-1.75a5.93,5.93,0,0,0-3.15,1,6.84,6.84,0,0,0-2.41,2.47,6.87,6.87,0,0,1-5.56,3.47H227.61c-1.39,0-2.14-.58-2.24-1.74a3.4,3.4,0,0,1,.39-1.73l1.87-3.48a6.91,6.91,0,0,1,5.56-3.48H285c1.39,0,2.13.58,2.23,1.74a3.36,3.36,0,0,1-.39,1.74L283.14,255a6.05,6.05,0,0,1-2.37,2.46,5.94,5.94,0,0,1-3.08,1,9.29,9.29,0,0,0-2.92.5q-1.95.66-1.86,1.74t2.88,1.23q2.16,0,2.31,1.74A3,3,0,0,1,277.64,265.46Zm74.22-29.18L340.2,219.91a1.33,1.33,0,0,0-1.14-.65c-.87,0-1.64.63-2.3,1.88l-10.56,20a6.81,6.81,0,0,1-2.4,2.47,5.84,5.84,0,0,1-3.15,1H294.74a5.92,5.92,0,0,0-3.16,1,6.82,6.82,0,0,0-2.41,2.46l-16.51,31.28a3.14,3.14,0,0,0-.47,1.74q.15,1.74,2.31,1.74h51.83a6,6,0,0,0,3.16-1,6.92,6.92,0,0,0,2.41-2.47l20-37.8a6,6,0,0,0,.64-3.33A3.82,3.82,0,0,0,351.86,236.28ZM321.1,249.81a3,3,0,0,1-.49,1.73l-12.77,24.35a6.9,6.9,0,0,1-2.41,2.46,5.84,5.84,0,0,1-3.15,1q-2.16,0-2.31-1.71a2.76,2.76,0,0,1,.55-1.72l12.77-24.34a6.72,6.72,0,0,1,2.38-2.49,5.77,5.77,0,0,1,3.12-1C320.23,248.08,321,248.66,321.1,249.81Z"/></g></svg>